<svg id="svg" version="1.1" xmlns="http://www.w3.org/2000/svg" xmlns:xlink="http://www.w3.org/1999/xlink" width="400" height="305.6" viewBox="0, 0, 400,305.6"><g id="svgg"><path id="path0" d="M122.521 152.714 C 97.368 194.481,76.821 228.687,76.861 228.727 C 76.901 228.767,132.342 228.778,200.063 228.750 L 323.193 228.700 289.147 171.755 C 270.421 140.435,255.055 114.811,255.000 114.813 C 254.945 114.815,247.790 126.729,239.100 141.289 C 227.199 161.229,223.243 167.704,223.071 167.530 C 222.944 167.404,210.627 147.005,195.700 122.200 C 180.772 97.395,168.490 77.027,168.406 76.937 C 168.323 76.848,147.675 110.948,122.521 152.714 M182.272 120.639 L 196.181 143.777 195.340 143.411 C 194.878 143.209,191.000 141.462,186.722 139.528 C 182.444 137.594,178.878 136.052,178.796 136.102 C 178.715 136.152,176.275 140.197,173.375 145.091 C 170.474 149.984,168.055 153.988,168.000 153.988 C 167.945 153.988,165.839 150.166,163.319 145.494 C 160.800 140.822,158.626 137.000,158.488 137.000 C 158.350 137.000,154.299 138.485,149.485 140.300 C 144.672 142.115,140.701 143.568,140.662 143.529 C 140.623 143.490,146.823 133.100,154.441 120.441 C 162.058 107.781,168.306 97.441,168.326 97.462 C 168.347 97.483,174.622 107.912,182.272 120.639 " stroke="none" fill="#0454cc" fill-rule="evenodd"></path><path id="path1" d="" stroke="none" fill="#0854cc" fill-rule="evenodd"></path><path id="path2" d="" stroke="none" fill="#0854cc" fill-rule="evenodd"></path><path id="path3" d="" stroke="none" fill="#0854cc" fill-rule="evenodd"></path><path id="path4" d="" stroke="none" fill="#0854cc" fill-rule="evenodd"></path></g></svg>