<?xml version="1.0" standalone="no"?>
<!DOCTYPE svg PUBLIC "-//W3C//DTD SVG 20010904//EN" "http://www.w3.org/TR/2001/REC-SVG-20010904/DTD/svg10.dtd">
<svg version="1.0" xmlns="http://www.w3.org/2000/svg" width="2000.000000pt" height="1310.000000pt" viewBox="0 0 2000.000000 1310.000000" preserveAspectRatio="xMidYMid meet">

  <g transform="translate(0.000000,1310.000000) scale(0.100000,-0.100000)" fill="#0052cc" stroke="none">
    <path d="M13850 7880 l0 -2750 365 0 365 0 0 565 0 564 328 303 c180 167 350
324 377 350 l50 46 733 -914 733 -914 444 0 c245 0 445 2 445 5 0 5 -955 1213
-1668 2110 l-151 190 42 41 c23 23 408 391 855 818 446 428 812 779 812 782 0
2 -208 4 -462 4 l-463 -1 -1035 -944 -1035 -944 -3 1719 -2 1720 -365 0 -365
0 0 -2750z" />
    <path d="M2130 9990 l0 -340 875 0 875 0 0 -2260 0 -2260 375 0 375 0 0 2260
0 2260 875 0 875 0 0 340 0 340 -2125 0 -2125 0 0 -340z" />
    <path d="M8620 9109 c-416 -22 -790 -169 -1045 -413 l-75 -71 0 228 0 227
-355 0 -355 0 0 -1975 0 -1975 365 0 365 0 0 1083 c0 666 4 1115 10 1167 37
313 131 536 301 715 212 223 468 315 877 315 l182 0 0 355 0 355 -62 -2 c-35
0 -128 -4 -208 -9z" />
    <path d="M10990 9109 c-504 -28 -928 -220 -1270 -575 -271 -282 -438 -617
-511 -1029 -27 -154 -37 -472 -20 -639 73 -701 468 -1273 1084 -1566 143 -68
232 -101 365 -135 442 -113 937 -96 1352 47 301 104 537 255 736 473 128 139
138 98 -86 356 -106 123 -201 232 -210 243 -17 18 -23 14 -151 -116 -171 -171
-284 -246 -481 -319 -304 -112 -720 -118 -1039 -14 -431 139 -743 482 -839
923 l-18 82 1562 0 1563 0 6 158 c14 340 -36 662 -143 932 -311 787 -1022
1228 -1900 1179z m356 -664 c179 -32 308 -82 452 -178 112 -75 253 -215 325
-324 87 -131 165 -322 191 -465 l7 -38 -1206 0 -1207 0 7 43 c12 73 84 279
126 357 176 327 468 538 835 604 109 20 359 20 470 1z" />
  </g>
</svg>